<svg xmlns="http://www.w3.org/2000/svg" xmlns:xlink="http://www.w3.org/1999/xlink" width="500" zoomAndPan="magnify" viewBox="0 0 375 374.999991" height="500" preserveAspectRatio="xMidYMid meet" version="1.0"><defs><g/><clipPath id="a427b6ee2e"><path d="M 187.5 0 C 83.945312 0 0 83.945312 0 187.5 C 0 291.054688 83.945312 375 187.5 375 C 291.054688 375 375 291.054688 375 187.5 C 375 83.945312 291.054688 0 187.5 0 " clip-rule="nonzero"/></clipPath></defs><rect x="-37.5" width="450" fill="#ffffff" y="-37.499999" height="449.999989" fill-opacity="1"/><rect x="-37.5" width="450" fill="#ffffff" y="-37.499999" height="449.999989" fill-opacity="1"/><rect x="-37.5" width="450" fill="#000000" y="-37.499999" height="449.999989" fill-opacity="1"/><g clip-path="url(#a427b6ee2e)"><rect x="-37.5" width="450" fill="#171810" y="-37.499999" height="449.999989" fill-opacity="1"/><path stroke-linecap="butt" transform="matrix(0.75, 0, 0, 0.75, 0.0000045, 0.000000000000063949)" fill="none" stroke-linejoin="miter" d="M 249.999994 -0.000000000000085265 C 111.927078 -0.000000000000085265 -0.000006 111.927084 -0.000006 250 C -0.000006 388.072917 111.927078 500.000001 249.999994 500.000001 C 388.072911 500.000001 499.999995 388.072917 499.999995 250 C 499.999995 111.927084 388.072911 -0.000000000000085265 249.999994 -0.000000000000085265 " stroke="#03fa6e" stroke-width="40" stroke-opacity="1" stroke-miterlimit="4"/></g><g fill="#03fa6e" fill-opacity="1"><g transform="translate(24.914054, 214.124986)"><g><path d="M 31.78125 -63.171875 C 31.78125 -67.445312 33.042969 -68.320312 36.832031 -68.320312 L 41.304688 -68.320312 L 41.304688 -82.605469 L 32.847656 -82.605469 C 17.203125 -82.605469 12.050781 -79.207031 12.050781 -63.65625 L 12.050781 -54.421875 C 12.050781 -47.132812 10.789062 -40.816406 3.597656 -40.71875 L 3.597656 -26.433594 C 10.789062 -26.335938 12.050781 -19.921875 12.050781 -12.828125 L 12.050781 -3.5 C 12.050781 12.246094 17.203125 15.550781 32.847656 15.550781 L 41.304688 15.550781 L 41.304688 1.359375 L 36.832031 1.359375 C 33.042969 1.359375 31.78125 0.390625 31.78125 -3.789062 L 31.78125 -15.355469 C 31.78125 -28.574219 26.53125 -32.070312 20.796875 -33.722656 C 26.53125 -35.179688 31.78125 -42.082031 31.78125 -51.898438 Z M 31.78125 -63.171875 "/></g></g></g><g fill="#ffffff" fill-opacity="1"><g transform="translate(66.410145, 214.124986)"><g><path d="M 34.304688 1.359375 C 54.617188 1.359375 66.960938 -7.191406 66.960938 -22.742188 L 66.960938 -22.9375 C 66.960938 -37.320312 59.378906 -43.246094 38.777344 -49.273438 C 30.222656 -51.800781 26.824219 -53.453125 26.824219 -56.757812 L 26.824219 -56.851562 C 26.824219 -59.671875 29.933594 -61.617188 37.027344 -61.617188 C 44.707031 -61.617188 52.480469 -59.378906 58.214844 -55.785156 L 66.183594 -73.277344 C 59.089844 -77.652344 48.300781 -80.273438 37.027344 -80.273438 C 17.394531 -80.273438 5.832031 -70.847656 5.832031 -56.5625 L 5.832031 -56.367188 C 5.832031 -42.371094 12.535156 -35.667969 30.128906 -30.710938 C 42.46875 -27.308594 45.871094 -25.851562 45.871094 -22.644531 L 45.871094 -22.546875 C 45.871094 -18.855469 40.914062 -17.394531 33.527344 -17.394531 C 24.585938 -17.394531 16.035156 -19.535156 10.496094 -23.226562 L 2.527344 -5.734375 C 9.621094 -1.261719 21.476562 1.359375 34.304688 1.359375 Z M 34.304688 1.359375 "/></g></g></g><g fill="#ffffff" fill-opacity="1"><g transform="translate(136.771061, 214.124986)"><g><path d="M 36.347656 1.75 C 55.980469 1.75 69.195312 -11.175781 69.195312 -29.253906 L 69.195312 -29.351562 C 69.195312 -47.328125 55.980469 -60.15625 36.347656 -60.15625 C 16.714844 -60.15625 3.597656 -47.328125 3.597656 -29.351562 L 3.597656 -29.253906 C 3.597656 -11.175781 16.8125 1.75 36.347656 1.75 Z M 36.347656 -17.105469 C 29.253906 -17.105469 24.78125 -22.351562 24.78125 -29.351562 L 24.78125 -29.445312 C 24.78125 -36.445312 29.15625 -41.304688 36.347656 -41.304688 C 43.636719 -41.304688 47.914062 -36.445312 47.914062 -29.445312 L 47.914062 -29.351562 C 47.914062 -22.351562 43.539062 -17.105469 36.347656 -17.105469 Z M 36.347656 -17.105469 "/></g></g></g><g fill="#ffffff" fill-opacity="1"><g transform="translate(209.554667, 214.124986)"><g><path d="M 27.40625 0 L 27.40625 -41.789062 L 47.816406 -41.789062 L 47.816406 -55.785156 L 27.40625 -55.785156 L 27.40625 -60.351562 C 27.40625 -64.726562 29.933594 -67.542969 36.734375 -67.542969 L 47.914062 -67.542969 L 47.914062 -78.816406 L 35.179688 -78.816406 C 20.019531 -78.816406 11.953125 -72.984375 11.953125 -61.03125 L 11.953125 -55.785156 L 2.234375 -55.785156 L 2.234375 -41.789062 L 11.953125 -41.789062 L 11.953125 0 Z M 27.40625 0 "/></g></g></g><g fill="#ffffff" fill-opacity="1"><g transform="translate(261.159152, 214.124986)"><g><path d="M 47.914062 0 L 47.914062 -14.285156 L 37.125 -14.285156 C 30.515625 -14.285156 27.503906 -16.8125 27.503906 -23.03125 L 27.503906 -41.59375 L 47.816406 -41.59375 L 47.816406 -55.785156 L 27.503906 -55.785156 L 27.503906 -72.890625 L 12.050781 -72.890625 L 12.050781 -55.785156 L 2.234375 -55.785156 L 2.234375 -41.59375 L 12.050781 -41.59375 L 12.050781 -18.171875 C 12.050781 -6.027344 16.910156 0 30.222656 0 Z M 47.914062 0 "/></g></g></g><g fill="#03fa6e" fill-opacity="1"><g transform="translate(313.14841, 214.124986)"><g><path d="M 24.683594 -65.40625 C 24.683594 -79.304688 20.410156 -82.316406 6.511719 -82.316406 L 0.390625 -82.316406 L 0.390625 -71.917969 L 3.789062 -71.917969 C 9.234375 -71.917969 10.300781 -70.652344 10.300781 -64.824219 L 10.300781 -51.023438 C 10.300781 -41.207031 15.257812 -34.597656 20.796875 -33.527344 C 15.257812 -31.875 10.300781 -28.476562 10.300781 -15.9375 L 10.300781 -1.945312 C 10.300781 3.789062 9.234375 5.152344 3.789062 5.152344 L 0.390625 5.152344 L 0.390625 15.550781 L 6.511719 15.550781 C 20.410156 15.550781 24.683594 12.535156 24.683594 -1.457031 L 24.683594 -14.09375 C 24.683594 -21.769531 26.335938 -27.792969 32.945312 -28.183594 L 32.945312 -38.679688 C 26.335938 -39.070312 24.683594 -45.09375 24.683594 -52.867188 Z M 24.683594 -65.40625 "/></g></g></g><g fill="#03fa6e" fill-opacity="1"><g transform="translate(139.114274, 262.769584)"><g><path d="M 6.570312 0.253906 C 10.382812 0.253906 12.75 -1.464844 12.75 -4.4375 L 12.75 -4.476562 C 12.75 -7.175781 11.324219 -8.253906 7.292969 -9.503906 C 5.164062 -10.1875 4.320312 -10.65625 4.320312 -11.753906 L 4.320312 -11.773438 C 4.320312 -12.691406 5.183594 -13.394531 7 -13.394531 C 8.546875 -13.394531 10.109375 -12.945312 11.265625 -12.183594 L 12.4375 -14.746094 C 11.089844 -15.625 9.035156 -16.132812 6.980469 -16.132812 C 3.382812 -16.132812 1.230469 -14.355469 1.230469 -11.714844 L 1.230469 -11.675781 C 1.230469 -9.054688 2.425781 -7.824219 5.886719 -6.785156 C 8.722656 -5.90625 9.640625 -5.476562 9.640625 -4.417969 L 9.640625 -4.398438 C 9.640625 -3.1875 8.371094 -2.503906 6.453125 -2.503906 C 4.734375 -2.503906 3.070312 -2.972656 1.898438 -3.753906 L 0.722656 -1.210938 C 2.132812 -0.273438 4.300781 0.253906 6.570312 0.253906 Z M 6.570312 0.253906 "/></g></g></g><g fill="#03fa6e" fill-opacity="1"><g transform="translate(152.000768, 262.769584)"><g><path d="M 7.019531 0.3125 C 10.695312 0.3125 13.257812 -2.230469 13.257812 -5.691406 L 13.257812 -5.710938 C 13.257812 -9.152344 10.695312 -11.675781 7.019531 -11.675781 C 3.34375 -11.675781 0.800781 -9.152344 0.800781 -5.710938 L 0.800781 -5.691406 C 0.800781 -2.230469 3.363281 0.3125 7.019531 0.3125 Z M 7.019531 -2.464844 C 5.164062 -2.464844 3.910156 -3.871094 3.910156 -5.691406 L 3.910156 -5.730469 C 3.910156 -7.527344 5.144531 -8.898438 7.019531 -8.898438 C 8.917969 -8.898438 10.128906 -7.527344 10.128906 -5.730469 L 10.128906 -5.691406 C 10.128906 -3.871094 8.898438 -2.464844 7.019531 -2.464844 Z M 7.019531 -2.464844 "/></g></g></g><g fill="#03fa6e" fill-opacity="1"><g transform="translate(165.297913, 262.769584)"><g><path d="M 5.515625 0 L 5.515625 -8.410156 L 9.621094 -8.410156 L 9.621094 -11.226562 L 5.515625 -11.226562 L 5.515625 -12.144531 C 5.515625 -13.023438 6.023438 -13.589844 7.390625 -13.589844 L 9.640625 -13.589844 L 9.640625 -15.859375 L 7.078125 -15.859375 C 4.027344 -15.859375 2.40625 -14.6875 2.40625 -12.28125 L 2.40625 -11.226562 L 0.449219 -11.226562 L 0.449219 -8.410156 L 2.40625 -8.410156 L 2.40625 0 Z M 5.515625 0 "/></g></g></g><g fill="#03fa6e" fill-opacity="1"><g transform="translate(174.93831, 262.769584)"><g><path d="M 9.640625 0 L 9.640625 -2.875 L 7.46875 -2.875 C 6.140625 -2.875 5.535156 -3.382812 5.535156 -4.632812 L 5.535156 -8.371094 L 9.621094 -8.371094 L 9.621094 -11.226562 L 5.535156 -11.226562 L 5.535156 -14.667969 L 2.425781 -14.667969 L 2.425781 -11.226562 L 0.449219 -11.226562 L 0.449219 -8.371094 L 2.425781 -8.371094 L 2.425781 -3.65625 C 2.425781 -1.210938 3.402344 0 6.082031 0 Z M 9.640625 0 "/></g></g></g><g fill="#03fa6e" fill-opacity="1"><g transform="translate(184.656929, 262.769584)"><g/></g></g><g fill="#ffffff" fill-opacity="1"><g transform="translate(187.217348, 262.769584)"><g><path d="M 8.507812 0 L 8.507812 -12.984375 L 13.53125 -12.984375 L 13.53125 -15.859375 L 0.390625 -15.859375 L 0.390625 -12.984375 L 5.4375 -12.984375 L 5.4375 0 Z M 8.507812 0 "/></g></g></g><g fill="#ffffff" fill-opacity="1"><g transform="translate(200.397165, 262.769584)"><g><path d="M 12.417969 -5.242188 C 12.417969 -9.25 10.226562 -11.675781 6.628906 -11.675781 C 3.070312 -11.675781 0.78125 -9.210938 0.78125 -5.710938 L 0.78125 -5.691406 C 0.78125 -2.132812 3.226562 0.292969 7 0.292969 C 9.191406 0.292969 10.734375 -0.390625 11.871094 -1.09375 L 10.519531 -3.5 C 9.699219 -2.914062 8.507812 -2.425781 7.136719 -2.425781 C 5.4375 -2.425781 4.320312 -3.519531 4.007812 -4.96875 L 12.417969 -4.96875 Z M 6.609375 -9.152344 C 8.117188 -9.152344 9.015625 -8.175781 9.25 -6.882812 L 4.027344 -6.882812 C 4.320312 -8.175781 5.261719 -9.152344 6.609375 -9.152344 Z M 6.609375 -9.152344 "/></g></g></g><g fill="#ffffff" fill-opacity="1"><g transform="translate(212.87301, 262.769584)"><g><path d="M 6.882812 0.292969 C 8.234375 0.292969 9.699219 -0.0390625 10.753906 -0.625 L 9.542969 -2.933594 C 8.761719 -2.523438 7.960938 -2.289062 7.039062 -2.289062 C 5.046875 -2.289062 3.910156 -3.734375 3.910156 -5.671875 L 3.910156 -5.710938 C 3.910156 -7.664062 5.046875 -9.074219 7.039062 -9.074219 C 7.960938 -9.074219 8.78125 -8.820312 9.542969 -8.410156 L 10.773438 -10.714844 C 9.699219 -11.324219 8.234375 -11.675781 6.882812 -11.675781 C 3.1875 -11.675781 0.78125 -9.210938 0.78125 -5.710938 L 0.78125 -5.671875 C 0.78125 -2.152344 3.207031 0.292969 6.882812 0.292969 Z M 6.882812 0.292969 "/></g></g></g><g fill="#ffffff" fill-opacity="1"><g transform="translate(223.373822, 262.769584)"><g><path d="M 6.257812 -11.675781 C 5.730469 -11.675781 4.988281 -11.617188 4.164062 -11.539062 L 4.164062 -15.859375 L 1.054688 -15.859375 L 1.054688 0 L 4.164062 0 L 4.164062 -8.703125 C 4.871094 -8.820312 5.613281 -8.898438 6.140625 -8.898438 C 7.585938 -8.898438 8.351562 -8.371094 8.351562 -6.960938 L 8.351562 0 L 11.460938 0 L 11.460938 -7.332031 C 11.460938 -10.695312 9.035156 -11.675781 6.257812 -11.675781 Z M 6.257812 -11.675781 "/></g></g></g></svg>