<svg xmlns="http://www.w3.org/2000/svg" xmlns:xlink="http://www.w3.org/1999/xlink" width="500" zoomAndPan="magnify" viewBox="0 0 375 374.999991" height="500" preserveAspectRatio="xMidYMid meet" version="1.0"><defs><g/></defs><rect x="-37.5" width="450" fill="#ffffff" y="-37.499999" height="449.999989" fill-opacity="1"/><rect x="-37.5" width="450" fill="#ffffff" y="-37.499999" height="449.999989" fill-opacity="1"/><rect x="-37.5" width="450" fill="#171810" y="-37.499999" height="449.999989" fill-opacity="1"/><g fill="#03fa6e" fill-opacity="1"><g transform="translate(64.590762, 201.374987)"><g><path d="M 16.796875 0.648438 C 26.546875 0.648438 32.597656 -3.75 32.597656 -11.347656 L 32.597656 -11.449219 C 32.597656 -18.347656 28.945312 -21.097656 18.648438 -24.296875 C 13.199219 -26.046875 11.050781 -27.246094 11.050781 -30.046875 L 11.050781 -30.097656 C 11.050781 -32.445312 13.25 -34.246094 17.898438 -34.246094 C 21.847656 -34.246094 25.847656 -33.097656 28.796875 -31.148438 L 31.796875 -37.695312 C 28.347656 -39.945312 23.097656 -41.246094 17.847656 -41.246094 C 8.648438 -41.246094 3.148438 -36.695312 3.148438 -29.945312 L 3.148438 -29.847656 C 3.148438 -23.148438 6.199219 -19.996094 15.046875 -17.347656 C 22.296875 -15.097656 24.648438 -14 24.648438 -11.300781 L 24.648438 -11.25 C 24.648438 -8.148438 21.398438 -6.398438 16.5 -6.398438 C 12.097656 -6.398438 7.847656 -7.597656 4.847656 -9.597656 L 1.851562 -3.101562 C 5.449219 -0.699219 11 0.648438 16.796875 0.648438 Z M 16.796875 0.648438 "/></g></g></g><g fill="#03fa6e" fill-opacity="1"><g transform="translate(97.535365, 201.374987)"><g><path d="M 17.949219 0.800781 C 27.347656 0.800781 33.898438 -5.699219 33.898438 -14.546875 L 33.898438 -14.597656 C 33.898438 -23.398438 27.347656 -29.847656 17.949219 -29.847656 C 8.550781 -29.847656 2.050781 -23.398438 2.050781 -14.597656 L 2.050781 -14.546875 C 2.050781 -5.699219 8.597656 0.800781 17.949219 0.800781 Z M 17.949219 -6.300781 C 13.199219 -6.300781 10 -9.898438 10 -14.546875 L 10 -14.648438 C 10 -19.25 13.148438 -22.746094 17.949219 -22.746094 C 22.796875 -22.746094 25.898438 -19.25 25.898438 -14.648438 L 25.898438 -14.546875 C 25.898438 -9.898438 22.746094 -6.300781 17.949219 -6.300781 Z M 17.949219 -6.300781 "/></g></g></g><g fill="#03fa6e" fill-opacity="1"><g transform="translate(131.529803, 201.374987)"><g><path d="M 14.097656 0 L 14.097656 -21.496094 L 24.597656 -21.496094 L 24.597656 -28.695312 L 14.097656 -28.695312 L 14.097656 -31.046875 C 14.097656 -33.296875 15.398438 -34.746094 18.898438 -34.746094 L 24.648438 -34.746094 L 24.648438 -40.546875 L 18.097656 -40.546875 C 10.300781 -40.546875 6.148438 -37.546875 6.148438 -31.398438 L 6.148438 -28.695312 L 1.148438 -28.695312 L 1.148438 -21.496094 L 6.148438 -21.496094 L 6.148438 0 Z M 14.097656 0 "/></g></g></g><g fill="#03fa6e" fill-opacity="1"><g transform="translate(156.175688, 201.374987)"><g><path d="M 24.648438 0 L 24.648438 -7.347656 L 19.097656 -7.347656 C 15.699219 -7.347656 14.148438 -8.648438 14.148438 -11.847656 L 14.148438 -21.398438 L 24.597656 -21.398438 L 24.597656 -28.695312 L 14.148438 -28.695312 L 14.148438 -37.496094 L 6.199219 -37.496094 L 6.199219 -28.695312 L 1.148438 -28.695312 L 1.148438 -21.398438 L 6.199219 -21.398438 L 6.199219 -9.347656 C 6.199219 -3.101562 8.699219 0 15.546875 0 Z M 24.648438 0 "/></g></g></g><g fill="#03fa6e" fill-opacity="1"><g transform="translate(181.021548, 201.374987)"><g/></g></g><g fill="#ffffff" fill-opacity="1"><g transform="translate(187.567317, 201.374987)"><g><path d="M 21.746094 0 L 21.746094 -33.195312 L 34.597656 -33.195312 L 34.597656 -40.546875 L 1 -40.546875 L 1 -33.195312 L 13.898438 -33.195312 L 13.898438 0 Z M 21.746094 0 "/></g></g></g><g fill="#ffffff" fill-opacity="1"><g transform="translate(221.261805, 201.374987)"><g><path d="M 31.746094 -13.398438 C 31.746094 -23.648438 26.148438 -29.847656 16.949219 -29.847656 C 7.847656 -29.847656 2 -23.546875 2 -14.597656 L 2 -14.546875 C 2 -5.449219 8.25 0.75 17.898438 0.75 C 23.496094 0.75 27.445312 -1 30.347656 -2.800781 L 26.898438 -8.949219 C 24.796875 -7.449219 21.746094 -6.199219 18.25 -6.199219 C 13.898438 -6.199219 11.050781 -9 10.25 -12.699219 L 31.746094 -12.699219 Z M 16.898438 -23.398438 C 20.746094 -23.398438 23.046875 -20.898438 23.648438 -17.597656 L 10.300781 -17.597656 C 11.050781 -20.898438 13.449219 -23.398438 16.898438 -23.398438 Z M 16.898438 -23.398438 "/></g></g></g><g fill="#ffffff" fill-opacity="1"><g transform="translate(253.156572, 201.374987)"><g><path d="M 17.597656 0.75 C 21.046875 0.75 24.796875 -0.101562 27.496094 -1.601562 L 24.398438 -7.5 C 22.398438 -6.449219 20.347656 -5.847656 18 -5.847656 C 12.898438 -5.847656 10 -9.550781 10 -14.5 L 10 -14.597656 C 10 -19.597656 12.898438 -23.199219 18 -23.199219 C 20.347656 -23.199219 22.449219 -22.546875 24.398438 -21.496094 L 27.546875 -27.398438 C 24.796875 -28.945312 21.046875 -29.847656 17.597656 -29.847656 C 8.148438 -29.847656 2 -23.546875 2 -14.597656 L 2 -14.5 C 2 -5.5 8.199219 0.75 17.597656 0.75 Z M 17.597656 0.75 "/></g></g></g><g fill="#ffffff" fill-opacity="1"><g transform="translate(280.002127, 201.374987)"><g><path d="M 16 -29.847656 C 14.648438 -29.847656 12.75 -29.695312 10.648438 -29.496094 L 10.648438 -40.546875 L 2.699219 -40.546875 L 2.699219 0 L 10.648438 0 L 10.648438 -22.246094 C 12.449219 -22.546875 14.347656 -22.746094 15.699219 -22.746094 C 19.398438 -22.746094 21.347656 -21.398438 21.347656 -17.796875 L 21.347656 0 L 29.296875 0 L 29.296875 -18.75 C 29.296875 -27.347656 23.097656 -29.847656 16 -29.847656 Z M 16 -29.847656 "/></g></g></g><g fill="#d9d9d9" fill-opacity="1"><g transform="translate(81.581447, 245.299906)"><g><path d="M 14.234375 -3.136719 L 11.945312 -15.601562 L 8.195312 -15.601562 L 5.90625 -3.117188 L 3.558594 -15.601562 L 0.308594 -15.601562 L 3.539062 0 L 7.792969 0 L 10.0625 -12.445312 L 12.332031 0 L 16.601562 0 L 19.832031 -15.601562 L 16.582031 -15.601562 Z M 14.234375 -3.136719 "/></g></g></g><g fill="#d9d9d9" fill-opacity="1"><g transform="translate(100.984702, 245.299906)"><g><path d="M 12.214844 -5.15625 C 12.214844 -9.097656 10.0625 -11.484375 6.523438 -11.484375 C 3.019531 -11.484375 0.769531 -9.0625 0.769531 -5.617188 L 0.769531 -5.597656 C 0.769531 -2.097656 3.175781 0.289062 6.886719 0.289062 C 9.042969 0.289062 10.5625 -0.382812 11.675781 -1.078125 L 10.351562 -3.445312 C 9.542969 -2.867188 8.367188 -2.386719 7.023438 -2.386719 C 5.347656 -2.386719 4.25 -3.460938 3.945312 -4.886719 L 12.214844 -4.886719 Z M 6.503906 -9.003906 C 7.984375 -9.003906 8.867188 -8.042969 9.097656 -6.773438 L 3.964844 -6.773438 C 4.25 -8.042969 5.175781 -9.003906 6.503906 -9.003906 Z M 6.503906 -9.003906 "/></g></g></g><g fill="#d9d9d9" fill-opacity="1"><g transform="translate(113.253424, 245.299906)"><g><path d="M 6.058594 0.308594 C 9.832031 0.308594 12.195312 -2.191406 12.195312 -5.578125 L 12.195312 -5.617188 C 12.195312 -9.003906 9.964844 -11.484375 6.195312 -11.484375 C 5.484375 -11.484375 4.769531 -11.351562 4.097656 -11.195312 L 4.097656 -15.601562 L 1.039062 -15.601562 L 1.039062 -0.769531 C 2.617188 0 4 0.308594 6.058594 0.308594 Z M 6.058594 -2.425781 C 5.347656 -2.425781 4.695312 -2.519531 4.097656 -2.675781 L 4.097656 -8.464844 C 4.695312 -8.597656 5.40625 -8.753906 6.058594 -8.753906 C 8.078125 -8.753906 9.117188 -7.386719 9.117188 -5.617188 L 9.117188 -5.578125 C 9.117188 -3.808594 8.078125 -2.425781 6.058594 -2.425781 Z M 6.058594 -2.425781 "/></g></g></g><g fill="#d9d9d9" fill-opacity="1"><g transform="translate(125.502919, 245.299906)"><g/></g></g><g fill="#d9d9d9" fill-opacity="1"><g transform="translate(128.021754, 245.299906)"><g><path d="M 13.214844 -2.90625 C 14.371094 -4.347656 15.003906 -6.039062 15.542969 -8.578125 L 12.695312 -8.578125 C 12.332031 -6.847656 12.023438 -5.828125 11.371094 -4.90625 L 8.503906 -8.117188 C 10.925781 -9.332031 11.984375 -10.636719 11.984375 -12.273438 L 11.984375 -12.292969 C 11.984375 -14.464844 10.3125 -15.871094 7.503906 -15.871094 C 4.769531 -15.871094 3.019531 -14.371094 3.019531 -12.234375 L 3.019531 -12.214844 C 3.019531 -11.042969 3.425781 -10.003906 4.480469 -8.65625 C 1.90625 -7.617188 0.769531 -6.15625 0.769531 -4.386719 L 0.769531 -4.347656 C 0.769531 -1.597656 3.019531 0.25 6.347656 0.25 C 8.253906 0.25 9.8125 -0.171875 11.234375 -1.210938 L 12.292969 0 L 15.851562 0 Z M 5.734375 -12.082031 C 5.734375 -13.082031 6.328125 -13.714844 7.578125 -13.714844 C 8.8125 -13.714844 9.367188 -12.984375 9.367188 -12.082031 L 9.367188 -12.0625 C 9.367188 -11.136719 8.40625 -10.40625 6.886719 -9.714844 C 6.058594 -10.734375 5.734375 -11.386719 5.734375 -12.0625 Z M 3.867188 -4.578125 C 3.867188 -5.539062 4.464844 -6.269531 5.945312 -7.023438 L 9.425781 -3.117188 C 8.675781 -2.617188 7.808594 -2.367188 6.789062 -2.367188 C 5.019531 -2.367188 3.867188 -3.136719 3.867188 -4.539062 Z M 3.867188 -4.578125 "/></g></g></g><g fill="#d9d9d9" fill-opacity="1"><g transform="translate(143.655816, 245.299906)"><g/></g></g><g fill="#d9d9d9" fill-opacity="1"><g transform="translate(146.174655, 245.299906)"><g><path d="M 8.984375 -3.078125 L 5.65625 -15.601562 L 1.058594 -15.601562 L 1.058594 0 L 4.058594 0 L 4.058594 -13.023438 L 7.484375 0 L 10.464844 0 L 13.871094 -13.003906 L 13.871094 0 L 16.890625 0 L 16.890625 -15.601562 L 12.292969 -15.601562 Z M 8.984375 -3.078125 "/></g></g></g><g fill="#d9d9d9" fill-opacity="1"><g transform="translate(163.385624, 245.299906)"><g><path d="M 6.90625 0.308594 C 10.523438 0.308594 13.042969 -2.191406 13.042969 -5.597656 L 13.042969 -5.617188 C 13.042969 -9.003906 10.523438 -11.484375 6.90625 -11.484375 C 3.289062 -11.484375 0.789062 -9.003906 0.789062 -5.617188 L 0.789062 -5.597656 C 0.789062 -2.191406 3.308594 0.308594 6.90625 0.308594 Z M 6.90625 -2.425781 C 5.078125 -2.425781 3.847656 -3.808594 3.847656 -5.597656 L 3.847656 -5.636719 C 3.847656 -7.40625 5.058594 -8.753906 6.90625 -8.753906 C 8.773438 -8.753906 9.964844 -7.40625 9.964844 -5.636719 L 9.964844 -5.597656 C 9.964844 -3.808594 8.753906 -2.425781 6.90625 -2.425781 Z M 6.90625 -2.425781 "/></g></g></g><g fill="#d9d9d9" fill-opacity="1"><g transform="translate(176.462026, 245.299906)"><g><path d="M 6.058594 0.308594 C 9.832031 0.308594 12.195312 -2.191406 12.195312 -5.578125 L 12.195312 -5.617188 C 12.195312 -9.003906 9.964844 -11.484375 6.195312 -11.484375 C 5.484375 -11.484375 4.769531 -11.351562 4.097656 -11.195312 L 4.097656 -15.601562 L 1.039062 -15.601562 L 1.039062 -0.769531 C 2.617188 0 4 0.308594 6.058594 0.308594 Z M 6.058594 -2.425781 C 5.347656 -2.425781 4.695312 -2.519531 4.097656 -2.675781 L 4.097656 -8.464844 C 4.695312 -8.597656 5.40625 -8.753906 6.058594 -8.753906 C 8.078125 -8.753906 9.117188 -7.386719 9.117188 -5.617188 L 9.117188 -5.578125 C 9.117188 -3.808594 8.078125 -2.425781 6.058594 -2.425781 Z M 6.058594 -2.425781 "/></g></g></g><g fill="#d9d9d9" fill-opacity="1"><g transform="translate(188.711518, 245.299906)"><g><path d="M 2.558594 -12.484375 C 3.40625 -12.484375 4.078125 -12.910156 4.078125 -13.832031 C 4.078125 -14.660156 3.460938 -15.160156 2.558594 -15.160156 C 1.671875 -15.160156 1.039062 -14.660156 1.039062 -13.832031 C 1.039062 -12.910156 1.730469 -12.484375 2.558594 -12.484375 Z M 4.097656 0 L 4.097656 -11.042969 L 1.039062 -11.042969 L 1.039062 0 Z M 4.097656 0 "/></g></g></g><g fill="#d9d9d9" fill-opacity="1"><g transform="translate(193.114941, 245.299906)"><g><path d="M 4.097656 0 L 4.097656 -15.601562 L 1.039062 -15.601562 L 1.039062 0 Z M 4.097656 0 "/></g></g></g><g fill="#d9d9d9" fill-opacity="1"><g transform="translate(197.518364, 245.299906)"><g><path d="M 12.214844 -5.15625 C 12.214844 -9.097656 10.0625 -11.484375 6.523438 -11.484375 C 3.019531 -11.484375 0.769531 -9.0625 0.769531 -5.617188 L 0.769531 -5.597656 C 0.769531 -2.097656 3.175781 0.289062 6.886719 0.289062 C 9.042969 0.289062 10.5625 -0.382812 11.675781 -1.078125 L 10.351562 -3.445312 C 9.542969 -2.867188 8.367188 -2.386719 7.023438 -2.386719 C 5.347656 -2.386719 4.25 -3.460938 3.945312 -4.886719 L 12.214844 -4.886719 Z M 6.503906 -9.003906 C 7.984375 -9.003906 8.867188 -8.042969 9.097656 -6.773438 L 3.964844 -6.773438 C 4.25 -8.042969 5.175781 -9.003906 6.503906 -9.003906 Z M 6.503906 -9.003906 "/></g></g></g><g fill="#d9d9d9" fill-opacity="1"><g transform="translate(209.787082, 245.299906)"><g/></g></g><g fill="#d9d9d9" fill-opacity="1"><g transform="translate(212.305915, 245.299906)"><g><path d="M 6.464844 0.25 C 10.214844 0.25 12.542969 -1.441406 12.542969 -4.367188 L 12.542969 -4.40625 C 12.542969 -7.058594 11.136719 -8.117188 7.175781 -9.347656 C 5.078125 -10.023438 4.25 -10.484375 4.25 -11.5625 L 4.25 -11.582031 C 4.25 -12.484375 5.097656 -13.175781 6.886719 -13.175781 C 8.40625 -13.175781 9.945312 -12.734375 11.082031 -11.984375 L 12.234375 -14.503906 C 10.90625 -15.371094 8.886719 -15.871094 6.867188 -15.871094 C 3.328125 -15.871094 1.210938 -14.121094 1.210938 -11.523438 L 1.210938 -11.484375 C 1.210938 -8.90625 2.386719 -7.695312 5.789062 -6.675781 C 8.578125 -5.808594 9.484375 -5.386719 9.484375 -4.347656 L 9.484375 -4.328125 C 9.484375 -3.136719 8.234375 -2.460938 6.347656 -2.460938 C 4.65625 -2.460938 3.019531 -2.925781 1.867188 -3.695312 L 0.710938 -1.191406 C 2.097656 -0.269531 4.230469 0.25 6.464844 0.25 Z M 6.464844 0.25 "/></g></g></g><g fill="#d9d9d9" fill-opacity="1"><g transform="translate(224.978472, 245.299906)"><g><path d="M 6.90625 0.308594 C 10.523438 0.308594 13.042969 -2.191406 13.042969 -5.597656 L 13.042969 -5.617188 C 13.042969 -9.003906 10.523438 -11.484375 6.90625 -11.484375 C 3.289062 -11.484375 0.789062 -9.003906 0.789062 -5.617188 L 0.789062 -5.597656 C 0.789062 -2.191406 3.308594 0.308594 6.90625 0.308594 Z M 6.90625 -2.425781 C 5.078125 -2.425781 3.847656 -3.808594 3.847656 -5.597656 L 3.847656 -5.636719 C 3.847656 -7.40625 5.058594 -8.753906 6.90625 -8.753906 C 8.773438 -8.753906 9.964844 -7.40625 9.964844 -5.636719 L 9.964844 -5.597656 C 9.964844 -3.808594 8.753906 -2.425781 6.90625 -2.425781 Z M 6.90625 -2.425781 "/></g></g></g><g fill="#d9d9d9" fill-opacity="1"><g transform="translate(238.054868, 245.299906)"><g><path d="M 4.097656 0 L 4.097656 -15.601562 L 1.039062 -15.601562 L 1.039062 0 Z M 4.097656 0 "/></g></g></g><g fill="#d9d9d9" fill-opacity="1"><g transform="translate(242.458291, 245.299906)"><g><path d="M 6.15625 0.308594 C 7.273438 0.308594 9.445312 0.0585938 11.273438 -0.269531 L 11.273438 -11.042969 L 8.234375 -11.042969 L 8.234375 -2.5 C 7.523438 -2.367188 6.828125 -2.308594 6.289062 -2.308594 C 4.847656 -2.308594 4.097656 -2.808594 4.097656 -4.214844 L 4.097656 -11.042969 L 1.039062 -11.042969 L 1.039062 -3.964844 C 1.039062 -0.652344 3.425781 0.308594 6.15625 0.308594 Z M 6.15625 0.308594 "/></g></g></g><g fill="#d9d9d9" fill-opacity="1"><g transform="translate(254.053936, 245.299906)"><g><path d="M 9.484375 0 L 9.484375 -2.828125 L 7.347656 -2.828125 C 6.039062 -2.828125 5.445312 -3.328125 5.445312 -4.558594 L 5.445312 -8.234375 L 9.464844 -8.234375 L 9.464844 -11.042969 L 5.445312 -11.042969 L 5.445312 -14.429688 L 2.386719 -14.429688 L 2.386719 -11.042969 L 0.441406 -11.042969 L 0.441406 -8.234375 L 2.386719 -8.234375 L 2.386719 -3.597656 C 2.386719 -1.191406 3.347656 0 5.984375 0 Z M 9.484375 0 "/></g></g></g><g fill="#d9d9d9" fill-opacity="1"><g transform="translate(263.611148, 245.299906)"><g><path d="M 2.558594 -12.484375 C 3.40625 -12.484375 4.078125 -12.910156 4.078125 -13.832031 C 4.078125 -14.660156 3.460938 -15.160156 2.558594 -15.160156 C 1.671875 -15.160156 1.039062 -14.660156 1.039062 -13.832031 C 1.039062 -12.910156 1.730469 -12.484375 2.558594 -12.484375 Z M 4.097656 0 L 4.097656 -11.042969 L 1.039062 -11.042969 L 1.039062 0 Z M 4.097656 0 "/></g></g></g><g fill="#d9d9d9" fill-opacity="1"><g transform="translate(268.014571, 245.299906)"><g><path d="M 6.90625 0.308594 C 10.523438 0.308594 13.042969 -2.191406 13.042969 -5.597656 L 13.042969 -5.617188 C 13.042969 -9.003906 10.523438 -11.484375 6.90625 -11.484375 C 3.289062 -11.484375 0.789062 -9.003906 0.789062 -5.617188 L 0.789062 -5.597656 C 0.789062 -2.191406 3.308594 0.308594 6.90625 0.308594 Z M 6.90625 -2.425781 C 5.078125 -2.425781 3.847656 -3.808594 3.847656 -5.597656 L 3.847656 -5.636719 C 3.847656 -7.40625 5.058594 -8.753906 6.90625 -8.753906 C 8.773438 -8.753906 9.964844 -7.40625 9.964844 -5.636719 L 9.964844 -5.597656 C 9.964844 -3.808594 8.753906 -2.425781 6.90625 -2.425781 Z M 6.90625 -2.425781 "/></g></g></g><g fill="#d9d9d9" fill-opacity="1"><g transform="translate(281.090979, 245.299906)"><g><path d="M 4.097656 0 L 4.097656 -8.5625 C 4.808594 -8.675781 5.5 -8.753906 6.039062 -8.753906 C 7.464844 -8.753906 8.234375 -8.234375 8.234375 -6.847656 L 8.234375 0 L 11.273438 0 L 11.273438 -7.214844 C 11.273438 -10.523438 8.90625 -11.484375 6.175781 -11.484375 C 5.058594 -11.484375 2.886719 -11.234375 1.039062 -10.90625 L 1.039062 0 Z M 4.097656 0 "/></g></g></g><g fill="#03fa6e" fill-opacity="1"><g transform="translate(128.961485, 118.695945)"><g><path d="M 11.445312 -22.746094 C 11.445312 -24.285156 11.898438 -24.601562 13.261719 -24.601562 L 14.871094 -24.601562 L 14.871094 -29.746094 L 11.828125 -29.746094 C 6.195312 -29.746094 4.339844 -28.519531 4.339844 -22.921875 L 4.339844 -19.597656 C 4.339844 -16.972656 3.882812 -14.699219 1.292969 -14.664062 L 1.292969 -9.519531 C 3.882812 -9.484375 4.339844 -7.175781 4.339844 -4.621094 L 4.339844 -1.261719 C 4.339844 4.410156 6.195312 5.597656 11.828125 5.597656 L 14.871094 5.597656 L 14.871094 0.488281 L 13.261719 0.488281 C 11.898438 0.488281 11.445312 0.140625 11.445312 -1.363281 L 11.445312 -5.527344 C 11.445312 -10.289062 9.554688 -11.546875 7.488281 -12.144531 C 9.554688 -12.667969 11.445312 -15.152344 11.445312 -18.6875 Z M 11.445312 -22.746094 "/></g></g></g><g fill="#ffffff" fill-opacity="1"><g transform="translate(143.90289, 118.695945)"><g><path d="M 12.351562 0.488281 C 19.667969 0.488281 24.113281 -2.589844 24.113281 -8.1875 L 24.113281 -8.257812 C 24.113281 -13.4375 21.382812 -15.574219 13.964844 -17.742188 C 10.882812 -18.652344 9.660156 -19.246094 9.660156 -20.4375 L 9.660156 -20.472656 C 9.660156 -21.488281 10.777344 -22.1875 13.332031 -22.1875 C 16.097656 -22.1875 18.898438 -21.382812 20.960938 -20.085938 L 23.832031 -26.386719 C 21.277344 -27.960938 17.390625 -28.90625 13.332031 -28.90625 C 6.265625 -28.90625 2.101562 -25.511719 2.101562 -20.367188 L 2.101562 -20.296875 C 2.101562 -15.257812 4.515625 -12.84375 10.847656 -11.058594 C 15.292969 -9.832031 16.519531 -9.308594 16.519531 -8.152344 L 16.519531 -8.117188 C 16.519531 -6.789062 14.734375 -6.265625 12.074219 -6.265625 C 8.855469 -6.265625 5.773438 -7.035156 3.78125 -8.363281 L 0.910156 -2.066406 C 3.464844 -0.453125 7.734375 0.488281 12.351562 0.488281 Z M 12.351562 0.488281 "/></g></g></g><g fill="#ffffff" fill-opacity="1"><g transform="translate(169.237167, 118.695945)"><g><path d="M 13.089844 0.628906 C 20.15625 0.628906 24.917969 -4.023438 24.917969 -10.535156 L 24.917969 -10.570312 C 24.917969 -17.042969 20.15625 -21.660156 13.089844 -21.660156 C 6.019531 -21.660156 1.292969 -17.042969 1.292969 -10.570312 L 1.292969 -10.535156 C 1.292969 -4.023438 6.054688 0.628906 13.089844 0.628906 Z M 13.089844 -6.160156 C 10.535156 -6.160156 8.921875 -8.050781 8.921875 -10.570312 L 8.921875 -10.601562 C 8.921875 -13.125 10.5 -14.871094 13.089844 -14.871094 C 15.710938 -14.871094 17.253906 -13.125 17.253906 -10.601562 L 17.253906 -10.570312 C 17.253906 -8.050781 15.679688 -6.160156 13.089844 -6.160156 Z M 13.089844 -6.160156 "/></g></g></g><g fill="#ffffff" fill-opacity="1"><g transform="translate(195.44195, 118.695945)"><g><path d="M 9.867188 0 L 9.867188 -15.046875 L 17.21875 -15.046875 L 17.21875 -20.085938 L 9.867188 -20.085938 L 9.867188 -21.730469 C 9.867188 -23.308594 10.777344 -24.320312 13.226562 -24.320312 L 17.253906 -24.320312 L 17.253906 -28.382812 L 12.667969 -28.382812 C 7.207031 -28.382812 4.304688 -26.28125 4.304688 -21.976562 L 4.304688 -20.085938 L 0.804688 -20.085938 L 0.804688 -15.046875 L 4.304688 -15.046875 L 4.304688 0 Z M 9.867188 0 "/></g></g></g><g fill="#ffffff" fill-opacity="1"><g transform="translate(214.022748, 118.695945)"><g><path d="M 17.253906 0 L 17.253906 -5.144531 L 13.367188 -5.144531 C 10.988281 -5.144531 9.902344 -6.054688 9.902344 -8.292969 L 9.902344 -14.976562 L 17.21875 -14.976562 L 17.21875 -20.085938 L 9.902344 -20.085938 L 9.902344 -26.246094 L 4.339844 -26.246094 L 4.339844 -20.085938 L 0.804688 -20.085938 L 0.804688 -14.976562 L 4.339844 -14.976562 L 4.339844 -6.542969 C 4.339844 -2.167969 6.089844 0 10.882812 0 Z M 17.253906 0 "/></g></g></g><g fill="#03fa6e" fill-opacity="1"><g transform="translate(232.742728, 118.695945)"><g><path d="M 8.890625 -23.550781 C 8.890625 -28.554688 7.347656 -29.640625 2.34375 -29.640625 L 0.140625 -29.640625 L 0.140625 -25.894531 L 1.363281 -25.894531 C 3.324219 -25.894531 3.710938 -25.441406 3.710938 -23.339844 L 3.710938 -18.371094 C 3.710938 -14.835938 5.496094 -12.457031 7.488281 -12.074219 C 5.496094 -11.476562 3.710938 -10.253906 3.710938 -5.738281 L 3.710938 -0.699219 C 3.710938 1.363281 3.324219 1.855469 1.363281 1.855469 L 0.140625 1.855469 L 0.140625 5.597656 L 2.34375 5.597656 C 7.347656 5.597656 8.890625 4.515625 8.890625 -0.523438 L 8.890625 -5.074219 C 8.890625 -7.839844 9.484375 -10.007812 11.863281 -10.148438 L 11.863281 -13.929688 C 9.484375 -14.066406 8.890625 -16.238281 8.890625 -19.039062 Z M 8.890625 -23.550781 "/></g></g></g></svg>